<!-- <svg width="64" height="64" version="1.1" xmlns="http://www.w3.org/2000/svg" desc="Created with imagetracer.js version 1.2.6" >
    <path fill="rgb(255,0,0)" stroke="rgb(255,0,0)" stroke-width="1" opacity="0.8509803921568627" d="M 28.5 4 Q 36.2 2.3 38 6.5 Q 39.7 14.2 35.5 16 Q 27.8 17.8 26 13.5 Q 24.2 5.8 28.5 4 Z " />
    <path fill="rgb(255,0,0)" stroke="rgb(255,0,0)" stroke-width="1" opacity="0.8509803921568627" d="M 28.5 26 Q 36.2 24.2 38 28.5 Q 39.7 36.2 35.5 38 Q 27.8 39.7 26 35.5 Q 24.2 27.8 28.5 26 Z " />
    <path fill="rgb(255,0,0)" stroke="rgb(255,0,0)" stroke-width="1" opacity="0.8509803921568627" d="M 28.5 48 Q 36.2 46.2 38 50.5 Q 39.7 58.3 35.5 60 Q 27.8 61.8 26 57.5 Q 24.2 49.8 28.5 48 Z " />

    <path fill="rgb(0,0,0)" stroke="rgb(0,0,0)" stroke-width="1" opacity="0" d="M 0 0 L 64 0 L 64 64 L 0 64 L 0 0 Z M 29 4 Q 24 6 26 14 Q 28 18 36 16 Q 40 14 38 7 Q 36 2 29 4 Z M 29 26 Q 24 28 26 36 Q 28 40 36 38 Q 40 36 38 29 Q 36 24 29 26 Z M 29 48 Q 24 50 26 58 Q 28 62 36 60 Q 40 58 38 51 Q 36 46 29 48 Z " /> 

</svg> -->

<svg xmlns="http://www.w3.org/2000/svg" height="24" viewBox="0 0 24 24" width="24">
    <path d="M0 0h24v24H0z" fill="none"/>
    <path fill="rgb(255,0,0)" d="M12 8c1.1 0 2-.9 2-2s-.9-2-2-2-2 .9-2 2 .9 2 2 2zm0 2c-1.1 0-2 .9-2 2s.9 2 2 2 2-.9 2-2-.9-2-2-2zm0 6c-1.1 0-2 .9-2 2s.9 2 2 2 2-.9 2-2-.9-2-2-2z" />
</svg>